<svg width="64" height="64" viewBox="0 0 64 64" fill="none" xmlns="http://www.w3.org/2000/svg">
  <rect width="64" height="64" rx="12" fill="url(#gradient)"/>
  <defs>
    <linearGradient id="gradient" x1="0" y1="0" x2="64" y2="64" gradientUnits="userSpaceOnUse">
      <stop offset="0%" stop-color="#8b5cf6"/>
      <stop offset="50%" stop-color="#ec4899"/>
      <stop offset="100%" stop-color="#ef4444"/>
    </linearGradient>
  </defs>

  <!-- Grid lines -->
  <line x1="12" y1="20" x2="52" y2="20" stroke="white" stroke-width="1" opacity="0.5"/>
  <line x1="12" y1="28" x2="52" y2="28" stroke="white" stroke-width="1" opacity="0.5"/>
  <line x1="12" y1="36" x2="52" y2="36" stroke="white" stroke-width="2"/>
  <line x1="12" y1="44" x2="52" y2="44" stroke="white" stroke-width="1" opacity="0.5"/>
  <line x1="12" y1="52" x2="52" y2="52" stroke="white" stroke-width="1" opacity="0.5"/>

  <line x1="20" y1="12" x2="20" y2="52" stroke="white" stroke-width="1" opacity="0.5"/>
  <line x1="28" y1="12" x2="28" y2="52" stroke="white" stroke-width="1" opacity="0.5"/>
  <line x1="36" y1="12" x2="36" y2="52" stroke="white" stroke-width="2"/>
  <line x1="44" y1="12" x2="44" y2="52" stroke="white" stroke-width="1" opacity="0.5"/>
  <line x1="52" y1="12" x2="52" y2="52" stroke="white" stroke-width="1" opacity="0.5"/>

  <!-- Filled cells forming a heart shape -->
  <rect x="21" y="21" width="6" height="6" fill="white" rx="1"/>
  <rect x="37" y="21" width="6" height="6" fill="white" rx="1"/>
  <rect x="13" y="29" width="6" height="6" fill="white" rx="1"/>
  <rect x="21" y="29" width="6" height="6" fill="white" rx="1"/>
  <rect x="29" y="29" width="6" height="6" fill="white" rx="1"/>
  <rect x="37" y="29" width="6" height="6" fill="white" rx="1"/>
  <rect x="45" y="29" width="6" height="6" fill="white" rx="1"/>
  <rect x="21" y="37" width="6" height="6" fill="white" rx="1"/>
  <rect x="29" y="37" width="6" height="6" fill="white" rx="1"/>
  <rect x="37" y="37" width="6" height="6" fill="white" rx="1"/>
  <rect x="29" y="45" width="6" height="6" fill="white" rx="1"/>
</svg>
